<svg xmlns="http://www.w3.org/2000/svg" viewBox="0 0 900 620"><rect width="900" height="620" fill="#b9ced9"/><rect y="540" width="900" height="80" fill="#667d68"/><path d="M245 540V80h410v460" fill="#e1ded4"/><path d="M200 540V240h90v300M610 540V180h100v360" fill="#9d775f"/><g fill="#496574"><rect x="315" y="130" width="70" height="48"/><rect x="415" y="130" width="70" height="48"/><rect x="515" y="130" width="70" height="48"/><rect x="315" y="230" width="70" height="48"/><rect x="415" y="230" width="70" height="48"/><rect x="515" y="230" width="70" height="48"/><rect x="315" y="330" width="70" height="48"/><rect x="415" y="330" width="70" height="48"/><rect x="515" y="330" width="70" height="48"/><rect x="315" y="430" width="70" height="48"/><rect x="415" y="430" width="70" height="48"/><rect x="515" y="430" width="70" height="48"/></g></svg>